<?xml version="1.0" standalone="no"?>
<!DOCTYPE svg PUBLIC "-//W3C//DTD SVG 20010904//EN"
 "http://www.w3.org/TR/2001/REC-SVG-20010904/DTD/svg10.dtd">
<svg version="1.0" xmlns="http://www.w3.org/2000/svg"
 width="512.000000pt" height="512.000000pt" viewBox="0 0 512.000000 512.000000"
 preserveAspectRatio="xMidYMid meet">
<metadata>
Created by potrace 1.14, written by Peter Selinger 2001-2017
</metadata>
<g transform="translate(0.000000,512.000000) scale(0.100000,-0.100000)"
fill="#000000" stroke="none">
<path d="M780 3555 l0 -195 435 0 435 0 0 -995 0 -995 200 0 200 0 2 993 3
992 433 3 432 2 0 195 0 195 -1070 0 -1070 0 0 -195z"/>
<path d="M3948 2813 c-3 -1059 2 -986 -81 -1024 -39 -17 -71 -19 -442 -19
-457 0 -451 -1 -492 80 -22 43 -23 53 -23 349 0 286 1 307 20 347 38 78 40 79
478 82 l382 3 0 194 0 195 -387 0 c-435 0 -478 -5 -600 -65 -93 -46 -177 -128
-224 -220 -61 -118 -64 -140 -64 -535 0 -314 2 -362 18 -420 60 -211 216 -360
415 -396 111 -19 835 -19 947 1 213 38 378 188 430 390 13 51 15 190 15 1017
l0 958 -195 0 -195 0 -2 -937z"/>
</g>
</svg>
